<?xml version="1.0" encoding="UTF-8" standalone="no"?>
<!DOCTYPE svg PUBLIC "-//W3C//DTD SVG 1.1//EN" "http://www.w3.org/Graphics/SVG/1.1/DTD/svg11.dtd">
<svg width="100%" height="100%" viewBox="0 0 847 341" version="1.1" xmlns="http://www.w3.org/2000/svg" xmlns:xlink="http://www.w3.org/1999/xlink" xml:space="preserve" xmlns:serif="http://www.serif.com/" style="fill-rule:evenodd;clip-rule:evenodd;stroke-miterlimit:22.926;">
    <g transform="matrix(1,0,0,1,-117.267917,-118.172917)">
        <g transform="matrix(4.166667,0,0,4.166667,0,0)">
            <g transform="matrix(1,0,0,1,0,-745.3397)">
                <path d="M66.606,809.97L66.606,776.773L69.079,776.773L69.079,809.97L66.606,809.97ZM75.654,799.034C75.654,801.578 76.51,803.741 78.216,805.515C79.921,807.289 81.975,808.172 84.391,808.172C86.792,808.172 88.837,807.289 90.526,805.515C92.216,803.741 93.065,801.578 93.065,799.034C93.065,796.466 92.224,794.295 90.542,792.521C88.861,790.739 86.808,789.848 84.391,789.848C81.95,789.848 79.881,790.739 78.192,792.521C76.502,794.295 75.654,796.466 75.654,799.034ZM72.987,798.986C72.987,795.802 74.094,793.105 76.3,790.885C78.507,788.673 81.207,787.564 84.399,787.564C87.552,787.564 90.235,788.673 92.458,790.901C94.673,793.121 95.78,795.818 95.78,798.986C95.78,800.492 95.481,801.951 94.891,803.368C94.301,804.786 93.469,806.033 92.393,807.111C91.31,808.196 90.082,809.022 88.724,809.573C87.366,810.132 85.927,810.408 84.399,810.408C81.207,810.408 78.507,809.306 76.3,807.094C74.094,804.883 72.987,802.185 72.987,798.986ZM114.706,806.584C113.663,807.864 112.515,808.82 111.262,809.46C110.001,810.092 108.627,810.408 107.124,810.408C104.651,810.408 102.735,809.638 101.393,808.107C100.051,806.568 99.381,804.381 99.381,801.529L99.381,788.05L101.805,788.05L101.805,800.339C101.805,802.979 102.266,804.948 103.187,806.236C104.117,807.524 105.515,808.172 107.391,808.172C108.91,808.172 110.276,807.791 111.497,807.03C112.717,806.276 113.792,805.134 114.706,803.619L114.706,788.05L117.131,788.05L117.131,809.97L114.706,809.97L114.706,806.584ZM138.093,809.095C137.196,809.541 136.29,809.873 135.377,810.084C134.472,810.302 133.534,810.408 132.572,810.408C129.201,810.408 126.437,809.338 124.271,807.2C122.105,805.061 121.022,802.323 121.022,798.986C121.022,795.737 122.137,793.024 124.368,790.844C126.591,788.657 129.395,787.564 132.758,787.564C133.583,787.564 134.399,787.645 135.215,787.798C136.024,787.961 136.848,788.204 137.665,788.536L137.665,791.258C136.832,790.772 135.983,790.415 135.134,790.188C134.278,789.962 133.38,789.848 132.435,789.848C130.002,789.848 127.932,790.739 126.235,792.521C124.538,794.295 123.689,796.466 123.689,799.034C123.689,801.61 124.538,803.781 126.227,805.539C127.917,807.297 129.986,808.172 132.435,808.172C133.348,808.172 134.278,808.018 135.215,807.718C136.153,807.418 137.115,806.973 138.093,806.374L138.093,809.095ZM159.257,807.548C157.834,808.536 156.444,809.265 155.086,809.743C153.728,810.221 152.33,810.456 150.899,810.456C147.626,810.456 144.999,809.379 143.018,807.224C141.038,805.077 140.044,802.218 140.044,798.653C140.044,795.332 140.981,792.659 142.849,790.642C144.724,788.625 147.181,787.612 150.228,787.612C153.057,787.612 155.345,788.568 157.083,790.488C158.821,792.4 159.685,794.943 159.685,798.111L159.685,798.208L142.614,798.208L142.614,798.467C142.614,801.327 143.382,803.644 144.91,805.418C146.445,807.192 148.426,808.075 150.851,808.075C152.305,808.075 153.704,807.816 155.046,807.305C156.388,806.787 157.794,805.977 159.257,804.867L159.257,807.548ZM142.921,796.118L156.824,796.118C156.574,794.182 155.822,792.635 154.577,791.46C153.324,790.285 151.821,789.702 150.051,789.702C148.232,789.702 146.664,790.294 145.338,791.484C144.013,792.675 143.204,794.214 142.921,796.118ZM162.566,805.985C163.674,806.73 164.756,807.281 165.832,807.637C166.907,807.994 167.998,808.172 169.105,808.172C170.504,808.172 171.611,807.84 172.419,807.175C173.219,806.511 173.624,805.604 173.624,804.445C173.624,802.753 172.16,801.367 169.226,800.29C168.467,800.006 167.876,799.788 167.448,799.626C165.839,798.994 164.627,798.175 163.827,797.171C163.018,796.167 162.615,794.976 162.615,793.599C162.615,791.824 163.261,790.375 164.547,789.249C165.832,788.123 167.505,787.564 169.558,787.564C170.487,787.564 171.449,787.717 172.435,788.017C173.422,788.317 174.448,788.787 175.507,789.419L175.507,791.938C174.4,791.225 173.341,790.691 172.33,790.334C171.32,789.978 170.342,789.799 169.396,789.799C168.103,789.799 167.036,790.148 166.195,790.852C165.363,791.557 164.942,792.456 164.942,793.55C164.942,794.514 165.323,795.324 166.09,795.98C166.858,796.637 168.281,797.333 170.358,798.062C172.573,798.832 174.093,799.682 174.909,800.589C175.733,801.497 176.145,802.696 176.145,804.186C176.145,806.13 175.499,807.67 174.214,808.779C172.921,809.897 171.15,810.456 168.911,810.456C167.771,810.456 166.688,810.294 165.654,809.978C164.619,809.662 163.593,809.176 162.566,808.528L162.566,805.985ZM183.544,804.591C183.544,806.058 183.747,807.038 184.151,807.507C184.547,807.985 185.266,808.22 186.309,808.22C186.842,808.22 187.4,808.131 187.982,807.945C188.572,807.767 189.219,807.483 189.946,807.102L189.946,809.5C189.267,809.808 188.604,810.035 187.95,810.181C187.295,810.335 186.632,810.408 185.969,810.408C184.159,810.408 182.873,809.97 182.138,809.103C181.394,808.229 181.023,806.714 181.023,804.543L181.023,790.091L176.359,790.091L176.359,788.05L181.119,788.05L181.119,780.905L183.544,780.905L183.544,788.05L189.404,788.05L189.404,790.091L183.544,790.091L183.544,804.591ZM210.254,807.548C208.831,808.536 207.441,809.265 206.083,809.743C204.725,810.221 203.327,810.456 201.896,810.456C198.622,810.456 195.995,809.379 194.015,807.224C192.035,805.077 191.04,802.218 191.04,798.653C191.04,795.332 191.978,792.659 193.845,790.642C195.721,788.625 198.178,787.612 201.225,787.612C204.054,787.612 206.341,788.568 208.079,790.488C209.817,792.4 210.682,794.943 210.682,798.111L210.682,798.208L193.611,798.208L193.611,798.467C193.611,801.327 194.379,803.644 195.907,805.418C197.442,807.192 199.422,808.075 201.848,808.075C203.303,808.075 204.701,807.816 206.042,807.305C207.384,806.787 208.791,805.977 210.254,804.867L210.254,807.548ZM193.918,796.118L207.821,796.118C207.57,794.182 206.819,792.635 205.574,791.46C204.321,790.285 202.817,789.702 201.047,789.702C199.228,789.702 197.66,790.294 196.335,791.484C195.009,792.675 194.201,794.214 193.918,796.118ZM215.163,809.97L215.163,788.05L217.588,788.05L217.588,793.461C218.946,791.371 220.183,789.88 221.306,788.989C222.43,788.106 223.594,787.661 224.814,787.661C225.477,787.661 226.115,787.798 226.738,788.066C227.36,788.341 228.015,788.763 228.694,789.329L227.369,791.654C226.706,791.12 226.1,790.723 225.558,790.472C225.008,790.221 224.483,790.091 223.982,790.091C223.004,790.091 222.009,790.569 220.999,791.517C219.989,792.465 218.849,793.996 217.588,796.118L217.588,809.97L215.163,809.97Z" style="fill:rgb(26,26,24);fill-rule:nonzero;"/>
            </g>
        </g>
        <g transform="matrix(4.166667,0,0,4.166667,0,0)">
            <g transform="matrix(1,0,0,1,0,-745.7125)">
                <path d="M62.962,810.031C60.557,811.203 58.228,812.087 55.966,812.663C53.713,813.24 51.49,813.528 49.285,813.528C47.032,813.528 44.895,813.24 42.871,812.673C40.848,812.096 38.958,811.25 37.202,810.124C34.339,808.301 32.105,805.957 30.521,803.065C28.936,800.182 28.144,797.038 28.144,793.634C28.144,791.076 28.669,788.593 29.71,786.184C30.759,783.775 32.239,781.673 34.157,779.878C36.171,777.952 38.452,776.502 41.01,775.534C43.558,774.558 46.326,774.074 49.285,774.074C51.471,774.074 53.694,774.372 55.956,774.967C58.219,775.553 60.557,776.455 62.962,777.655L61.6,780.141C58.986,778.84 57.892,778.451 55.632,777.795C53.378,777.14 51.222,776.808 49.171,776.808C47.347,776.808 45.601,777.05 43.94,777.534C42.28,778.008 40.714,778.715 39.244,779.646C36.82,781.245 34.94,783.273 33.594,785.737C32.248,788.193 31.58,790.881 31.58,793.783C31.58,796.024 32.01,798.191 32.878,800.284C33.747,802.386 34.969,804.237 36.553,805.837C38.137,807.436 40.017,808.655 42.193,809.51C44.36,810.366 46.708,810.794 49.218,810.794C50.84,810.794 52.54,810.589 54.324,810.171C56.1,809.752 57.951,809.12 59.869,808.283L59.869,798.015L51.623,798.015L53.096,795.336L62.962,795.336L62.962,810.031Z" style="fill:rgb(26,26,24);fill-rule:nonzero;"/>
            </g>
        </g>
        <g transform="matrix(4.166667,0,0,4.166667,0,0)">
            <g transform="matrix(1,0,0,1,0,-689.3642)">
                <path d="M140.797,773.163C139.767,773.787 138.711,774.246 137.629,774.551C136.548,774.852 135.412,775.002 134.226,775.002C132.885,775.002 131.649,774.786 130.526,774.357C129.399,773.924 128.414,773.287 127.572,772.452C126.704,771.581 126.041,770.56 125.589,769.397C125.133,768.231 124.906,766.979 124.906,765.64C124.906,762.824 125.795,760.557 127.576,758.833C129.357,757.114 131.708,756.252 134.629,756.252C135.676,756.252 136.699,756.371 137.692,756.614C138.69,756.858 139.674,757.229 140.647,757.728L138.646,760.857C138.299,760.695 138.181,760.651 137.789,760.526C136.824,760.22 135.873,760.044 134.913,760.044C133.183,760.044 131.817,760.539 130.823,761.534C129.83,762.529 129.332,763.894 129.332,765.64C129.332,767.333 129.805,768.686 130.756,769.694C131.704,770.706 132.982,771.21 134.587,771.21C135.618,771.21 136.659,771.035 137.692,770.635C138.572,770.294 138.568,770.286 139.405,769.855L140.797,773.163ZM147.773,768.557C147.773,769.601 148.012,770.44 148.489,771.064C148.971,771.691 149.604,772.005 150.388,772.005C151.18,772.005 151.817,771.691 152.29,771.064C152.764,770.44 153.003,769.601 153.003,768.557C153.003,767.51 152.764,766.67 152.286,766.038C151.804,765.401 151.176,765.083 150.388,765.083C149.608,765.083 148.98,765.401 148.498,766.038C148.016,766.67 147.773,767.51 147.773,768.557ZM144.001,768.562C144.001,766.675 144.592,765.132 145.774,763.947C146.955,762.758 148.494,762.166 150.384,762.166C152.278,762.166 153.824,762.763 155.015,763.952C156.205,765.145 156.799,766.683 156.799,768.562C156.799,770.436 156.205,771.965 155.019,773.15C153.833,774.33 152.286,774.923 150.384,774.923C148.494,774.923 146.955,774.335 145.774,773.155C144.592,771.974 144.001,770.445 144.001,768.562ZM168.326,773.146C167.748,773.769 167.144,774.22 166.524,774.503C165.904,774.781 165.187,774.923 164.379,774.923C163.105,774.923 162.124,774.516 161.437,773.698C160.749,772.881 160.405,771.709 160.405,770.18L160.405,762.405L164.077,762.405L164.077,769.649C164.077,770.525 164.21,771.161 164.475,771.563C164.739,771.965 165.154,772.165 165.72,772.165C166.223,772.165 166.7,772.001 167.144,771.678C167.589,771.355 167.983,770.874 168.326,770.233L168.326,762.405L171.997,762.405L171.997,774.684L168.326,774.684L168.326,773.146ZM176.354,774.684L176.354,762.405L180,762.405L180,763.952C180.573,763.328 181.173,762.878 181.806,762.595C182.434,762.307 183.155,762.166 183.968,762.166C185.242,762.166 186.223,762.573 186.902,763.39C187.581,764.203 187.92,765.38 187.92,766.918L187.92,774.684L184.249,774.684L184.249,767.448C184.249,766.577 184.114,765.937 183.851,765.534C183.583,765.127 183.168,764.924 182.602,764.924C182.095,764.924 181.621,765.088 181.185,765.415C180.745,765.742 180.352,766.228 180,766.865L180,774.684L176.354,774.684ZM202.058,774.131C201.508,774.401 200.93,774.6 200.319,774.728C199.71,774.856 199.048,774.923 198.336,774.923C196.249,774.923 194.598,774.353 193.378,773.208C192.159,772.063 191.547,770.516 191.547,768.562C191.547,766.63 192.151,765.074 193.357,763.899C194.565,762.727 196.174,762.139 198.185,762.139C198.827,762.139 199.446,762.206 200.054,762.338C200.658,762.471 201.261,762.674 201.856,762.94L200.733,765.516C200.454,765.421 200.452,765.428 200.155,765.357C199.642,765.237 199.17,765.163 198.734,765.163C197.686,765.163 196.869,765.463 196.278,766.065C195.687,766.666 195.394,767.497 195.394,768.557C195.394,769.636 195.696,770.472 196.299,771.064C196.899,771.656 197.762,771.952 198.885,771.952C199.371,771.952 199.87,771.884 200.385,771.749C200.9,771.614 200.943,771.597 201.235,771.477L202.058,774.131ZM205.864,774.684L205.864,762.405L209.536,762.405L209.536,774.684L205.864,774.684ZM205.739,758.431C205.739,757.852 205.928,757.361 206.309,756.959C206.69,756.557 207.151,756.358 207.7,756.358C208.257,756.358 208.723,756.557 209.096,756.955C209.473,757.352 209.661,757.843 209.661,758.431C209.661,759.014 209.473,759.501 209.096,759.898C208.723,760.296 208.257,760.495 207.7,760.495C207.151,760.495 206.69,760.296 206.309,759.894C205.928,759.492 205.739,759.005 205.739,758.431ZM213.917,774.684L213.917,756.57L217.588,756.57L217.588,774.684L213.917,774.684Z" style="fill:rgb(26,26,24);fill-rule:nonzero;stroke:rgb(26,26,24);stroke-width:0.57px;"/>
            </g>
        </g>
        <g transform="matrix(4.166667,0,0,4.166667,0,0)">
            <g transform="matrix(1,0,0,1,0,-683.6618)">
                <path d="M82.458,767.461C81.427,768.085 80.371,768.544 79.29,768.849C78.208,769.15 77.073,769.3 75.887,769.3C74.546,769.3 73.31,769.083 72.186,768.654C71.059,768.222 70.075,767.585 69.232,766.75C68.365,765.879 67.703,764.858 67.25,763.695C66.793,762.529 66.567,761.278 66.567,759.938C66.567,757.123 67.456,754.855 69.236,753.131C71.018,751.412 73.368,750.55 76.289,750.55C77.337,750.55 78.359,750.669 79.352,750.912C80.35,751.155 81.335,751.527 82.307,752.026L81.254,755.625C80.326,755.09 80.404,755.144 79.449,754.824C78.489,754.503 77.534,754.342 76.574,754.342C74.844,754.342 73.477,754.837 72.484,755.832C71.491,756.827 70.992,758.192 70.992,759.938C70.992,761.631 71.466,762.984 72.417,763.991C73.364,765.004 74.642,765.507 76.247,765.507C77.278,765.507 78.31,765.308 79.352,764.933C80.192,764.631 80.295,764.585 80.963,764.187L82.458,767.461ZM86.366,768.982L86.366,756.703L90.036,756.703L90.036,768.982L86.366,768.982ZM86.24,752.729C86.24,752.15 86.428,751.659 86.81,751.257C87.191,750.855 87.652,750.656 88.201,750.656C88.758,750.656 89.223,750.855 89.597,751.253C89.974,751.651 90.162,752.141 90.162,752.729C90.162,753.312 89.974,753.799 89.597,754.197C89.223,754.594 88.758,754.793 88.201,754.793C87.652,754.793 87.191,754.594 86.81,754.192C86.428,753.79 86.24,753.304 86.24,752.729ZM94.921,759.381L93.261,759.381L93.261,758.555L98.013,753.123L98.566,753.123L98.566,756.703L102.539,756.703L102.539,759.381L98.566,759.381L98.566,763.916C98.566,764.858 98.692,765.49 98.948,765.804C99.199,766.117 99.66,766.277 100.331,766.277C100.658,766.277 101.005,766.228 101.37,766.127C101.73,766.029 102.124,765.875 102.539,765.667L102.564,768.558C101.974,768.792 101.382,768.964 100.796,769.079C100.205,769.189 99.618,769.247 99.036,769.247C97.557,769.247 96.496,768.845 95.868,768.04C95.235,767.236 94.921,765.852 94.921,763.89L94.921,759.381ZM109.204,775.002L105.361,775.002L108.81,767.01L104.381,756.703L108.308,756.703L110.667,762.701L113.185,756.703L117.054,756.703L109.204,775.002Z" style="fill:rgb(26,26,24);fill-rule:nonzero;stroke:rgb(26,26,24);stroke-width:0.57px;"/>
            </g>
        </g>
        <g transform="matrix(4.166667,0,0,4.166667,0,0)">
            <g transform="matrix(1,0,0,1,0,-642.2411)">
                <path d="M81.921,746.046L81.079,746.046L82.694,735.18L79.201,735.18L79.319,734.377L86.836,734.377L86.753,735.18L83.527,735.18L81.921,746.046ZM86.02,746.046L85.236,746.046L86.413,738.341L87.172,738.341L86.862,740.354C87.534,739.517 88.072,738.941 88.473,738.634C88.874,738.326 89.257,738.17 89.622,738.17C89.745,738.17 89.867,738.189 89.987,738.224C90.106,738.26 90.225,738.318 90.337,738.389L90.311,739.053C90.194,738.987 90.074,738.936 89.958,738.905C89.841,738.873 89.728,738.854 89.622,738.854C89.409,738.854 89.184,738.923 88.953,739.059C88.721,739.194 88.43,739.417 88.096,739.739C87.596,740.223 87.238,740.657 87.019,741.026C86.801,741.394 86.648,741.805 86.583,742.251L86.02,746.046ZM96.852,746.046L96.044,746.046L96.162,745.226C95.725,745.562 95.285,745.811 94.849,745.972C94.414,746.133 93.965,746.217 93.511,746.217C92.721,746.217 92.073,745.931 91.572,745.366C91.07,744.8 90.819,744.059 90.819,743.147C90.819,742.473 90.968,741.825 91.262,741.205C91.554,740.59 91.974,740.05 92.511,739.591C93.02,739.156 93.592,738.832 94.217,738.637C94.845,738.441 95.611,738.341 96.507,738.341L98.006,738.341L96.852,746.046ZM96.323,744.267L97.096,739.084C96.9,739.067 96.75,739.055 96.65,739.05C96.551,739.045 96.461,739.042 96.389,739.042C94.979,739.042 93.84,739.427 92.971,740.192C92.102,740.957 91.664,741.949 91.664,743.159C91.664,743.894 91.85,744.477 92.224,744.913C92.597,745.349 93.094,745.568 93.712,745.568C94.143,745.568 94.578,745.456 95.013,745.237C95.446,745.02 95.884,744.697 96.323,744.267ZM99.517,746.046L100.677,738.341L101.484,738.341L101.292,739.503C101.789,739.053 102.282,738.716 102.76,738.492C103.236,738.269 103.708,738.153 104.167,738.153C104.802,738.153 105.29,738.327 105.635,738.674C105.98,739.022 106.152,739.514 106.152,740.146C106.152,740.297 106.144,740.482 106.123,740.701C106.103,740.921 106.074,741.168 106.035,741.431L105.342,746.046L104.526,746.046L105.25,741.223C105.28,741.022 105.318,740.832 105.333,740.656C105.35,740.478 105.359,740.314 105.359,740.163C105.359,739.725 105.249,739.39 105.032,739.17C104.815,738.949 104.492,738.837 104.064,738.837C103.61,738.837 103.132,738.977 102.631,739.258C102.132,739.538 101.637,739.944 101.157,740.471L100.315,746.046L99.517,746.046ZM107.545,745.05L107.941,744.457C108.323,744.825 108.703,745.101 109.084,745.28C109.465,745.46 109.857,745.551 110.256,745.551C110.751,745.551 111.157,745.425 111.477,745.175C111.795,744.927 111.957,744.611 111.957,744.232C111.957,743.726 111.416,743.12 110.34,742.416L110.222,742.339C109.387,741.793 108.851,741.363 108.619,741.063C108.389,740.765 108.269,740.431 108.269,740.064C108.269,739.52 108.497,739.068 108.947,738.717C109.396,738.365 109.981,738.187 110.699,738.187C111.135,738.187 111.556,738.248 111.957,738.367C112.355,738.484 112.747,738.671 113.129,738.919L112.986,739.688C112.555,739.403 112.142,739.19 111.75,739.05C111.36,738.911 110.992,738.837 110.65,738.837C110.179,738.837 109.793,738.949 109.495,739.167C109.195,739.385 109.044,739.662 109.044,739.995C109.044,740.403 109.574,740.955 110.636,741.647L110.754,741.724C111.632,742.296 112.193,742.748 112.437,743.076C112.679,743.403 112.801,743.78 112.801,744.204C112.801,744.788 112.565,745.268 112.095,745.639C111.625,746.011 111.015,746.2 110.271,746.2C109.719,746.2 109.219,746.104 108.766,745.915C108.31,745.725 107.904,745.437 107.545,745.05ZM115.171,749.429L114.398,749.429L115.777,738.973L114.208,738.973L114.26,738.341L115.88,738.341L116.021,737.356C116.176,736.271 116.498,735.482 116.995,734.992C117.492,734.502 118.207,734.258 119.138,734.258C119.368,734.258 119.602,734.279 119.836,734.32C120.07,734.362 120.327,734.426 120.603,734.517L120.402,735.157C120.192,735.075 119.99,735.011 119.79,734.97C119.593,734.928 119.391,734.907 119.189,734.907C118.526,734.907 117.999,735.076 117.613,735.414C117.229,735.748 116.986,736.254 116.88,736.92L116.653,738.341L118.558,738.341L118.431,738.973L116.605,738.973L115.171,749.429ZM119.086,742.903C119.086,741.562 119.449,740.436 120.169,739.531C120.889,738.625 121.766,738.17 122.791,738.17C123.613,738.17 124.269,738.467 124.759,739.059C125.249,739.65 125.497,740.448 125.497,741.45C125.497,742.809 125.142,743.94 124.434,744.845C123.729,745.746 122.857,746.2 121.823,746.2C120.97,746.2 120.299,745.909 119.815,745.329C119.33,744.747 119.086,743.939 119.086,742.903ZM122.708,738.973C121.944,738.973 121.29,739.353 120.746,740.109C120.204,740.862 119.93,741.795 119.93,742.903C119.93,743.703 120.101,744.328 120.438,744.768C120.776,745.208 121.251,745.431 121.857,745.431C122.633,745.431 123.29,745.051 123.828,744.295C124.364,743.542 124.635,742.592 124.635,741.45C124.635,740.684 124.459,740.077 124.112,739.636C123.766,739.197 123.297,738.973 122.708,738.973ZM127.884,746.046L127.1,746.046L128.277,738.341L129.036,738.341L128.725,740.354C129.398,739.517 129.937,738.941 130.337,738.634C130.738,738.326 131.121,738.17 131.486,738.17C131.609,738.17 131.731,738.189 131.851,738.224C131.97,738.26 132.089,738.318 132.201,738.389L132.175,739.053C132.057,738.987 131.938,738.936 131.822,738.905C131.705,738.873 131.592,738.854 131.486,738.854C131.273,738.854 131.048,738.923 130.817,739.059C130.585,739.194 130.294,739.417 129.96,739.739C129.46,740.223 129.102,740.657 128.883,741.026C128.665,741.394 128.512,741.805 128.447,742.251L127.884,746.046ZM132.718,746.046L133.878,738.341L134.688,738.341L134.493,739.503C134.975,739.047 135.451,738.707 135.912,738.486C136.373,738.265 136.845,738.153 137.322,738.153C137.837,738.153 138.239,738.278 138.529,738.529C138.819,738.78 139.003,739.158 139.08,739.671C139.583,739.164 140.082,738.784 140.568,738.532C141.053,738.28 141.534,738.153 142.005,738.153C142.605,738.153 143.07,738.327 143.404,738.674C143.737,739.022 143.903,739.514 143.903,740.146C143.903,740.286 143.894,740.455 143.875,740.647C143.856,740.84 143.827,741.106 143.78,741.431L143.11,746.046L142.338,746.046L143.044,741.223C143.083,740.96 143.112,740.743 143.125,740.574C143.138,740.401 143.145,740.263 143.145,740.163C143.145,739.75 143.041,739.427 142.835,739.192C142.627,738.956 142.341,738.837 141.976,738.837C141.516,738.837 141.041,738.978 140.557,739.255C140.073,739.531 139.592,739.938 139.115,740.471L138.374,746.046L137.581,746.046L138.29,741.223C138.325,740.984 138.349,740.78 138.365,740.619C138.381,740.455 138.391,740.329 138.391,740.237C138.391,739.799 138.285,739.454 138.078,739.206C137.871,738.961 137.584,738.837 137.219,738.837C136.753,738.837 136.279,738.978 135.797,739.255C135.316,739.531 134.835,739.938 134.358,740.471L133.516,746.046L132.718,746.046ZM146.684,746.046L145.868,746.046L147.028,738.341L147.833,738.341L146.684,746.046ZM148.059,736.325L147.263,736.325L147.439,735.129L148.246,735.129L148.059,736.325ZM149.55,746.046L150.71,738.341L151.517,738.341L151.325,739.503C151.822,739.053 152.315,738.716 152.793,738.492C153.269,738.269 153.741,738.153 154.2,738.153C154.835,738.153 155.324,738.327 155.668,738.674C156.013,739.022 156.185,739.514 156.185,740.146C156.185,740.297 156.177,740.482 156.157,740.701C156.136,740.921 156.107,741.168 156.067,741.431L155.375,746.046L154.559,746.046L155.283,741.223C155.313,741.022 155.351,740.832 155.367,740.656C155.383,740.478 155.392,740.314 155.392,740.163C155.392,739.725 155.282,739.39 155.065,739.17C154.848,738.949 154.525,738.837 154.097,738.837C153.643,738.837 153.164,738.977 152.663,739.258C152.164,739.538 151.67,739.944 151.19,740.471L150.348,746.046L149.55,746.046ZM160.617,746.322C159.735,746.476 159.06,746.693 158.592,746.969C158.124,747.245 157.888,747.564 157.888,747.926C157.888,748.324 158.111,748.665 158.554,748.942C158.997,749.218 159.554,749.361 160.229,749.361C161.065,749.361 161.741,749.22 162.254,748.939C162.767,748.659 163.024,748.299 163.024,747.857C163.024,747.507 162.852,747.219 162.51,746.994C162.168,746.77 161.536,746.545 160.617,746.322ZM160.867,743.227C161.528,743.227 162.086,743.01 162.536,742.581C162.986,742.152 163.214,741.616 163.214,740.975C163.214,740.397 163.037,739.923 162.685,739.557C162.333,739.191 161.875,739.007 161.321,739.007C160.637,739.007 160.078,739.224 159.652,739.657C159.224,740.09 159.008,740.65 159.008,741.334C159.008,741.906 159.179,742.366 159.517,742.709C159.855,743.052 160.307,743.227 160.867,743.227ZM159.801,746.066C159.295,745.95 158.914,745.784 158.655,745.574C158.396,745.363 158.267,745.112 158.267,744.822C158.267,744.54 158.397,744.293 158.655,744.087C158.912,743.883 159.278,743.731 159.75,743.637C159.238,743.381 158.856,743.058 158.6,742.669C158.347,742.283 158.215,741.826 158.215,741.302C158.215,740.363 158.511,739.631 159.103,739.115C159.695,738.6 160.531,738.341 161.611,738.341L165.006,738.341L165.006,738.956L163.024,738.956C163.343,739.181 163.584,739.459 163.745,739.787C163.907,740.117 163.989,740.499 163.989,740.927C163.989,741.599 163.802,742.179 163.429,742.666C163.056,743.153 162.535,743.498 161.869,743.689C161.541,743.782 161.139,743.865 160.672,743.931C160.205,743.996 159.914,744.047 159.807,744.082C159.529,744.172 159.32,744.277 159.189,744.381C159.059,744.485 158.991,744.608 158.991,744.748C158.991,745.047 159.471,745.325 160.43,745.565C160.77,745.65 161.041,745.719 161.231,745.773C162.242,746.061 162.927,746.356 163.283,746.65C163.637,746.943 163.817,747.33 163.817,747.809C163.817,748.424 163.478,748.937 162.803,749.338C162.128,749.74 161.246,749.942 160.163,749.942C159.293,749.942 158.577,749.754 158.02,749.383C157.462,749.011 157.181,748.541 157.181,747.974C157.181,747.553 157.391,747.188 157.805,746.884C158.218,746.579 158.885,746.305 159.801,746.066ZM173.685,746.046L172.861,746.046L173.829,739.981L171.02,734.377L171.879,734.377L174.361,739.164L178.152,734.377L179.138,734.377L174.737,739.981L173.685,746.046ZM177.138,742.903C177.138,741.562 177.502,740.436 178.221,739.531C178.941,738.625 179.818,738.17 180.843,738.17C181.665,738.17 182.321,738.468 182.811,739.059C183.301,739.649 183.549,740.448 183.549,741.45C183.549,742.809 183.194,743.941 182.487,744.845C181.781,745.745 180.909,746.2 179.875,746.2C179.022,746.2 178.351,745.908 177.868,745.329C177.383,744.747 177.138,743.939 177.138,742.903ZM180.76,738.973C179.996,738.973 179.342,739.353 178.798,740.109C178.257,740.862 177.982,741.795 177.982,742.903C177.982,743.703 178.153,744.328 178.491,744.768C178.828,745.207 179.303,745.431 179.91,745.431C180.685,745.431 181.342,745.051 181.88,744.295C182.416,743.542 182.688,742.592 182.688,741.45C182.688,740.684 182.512,740.078 182.165,739.636C181.817,739.195 181.349,738.973 180.76,738.973ZM192.115,738.307L190.946,746.046L190.127,746.046L190.322,744.85C189.811,745.315 189.312,745.659 188.826,745.881C188.338,746.103 187.849,746.217 187.363,746.217C186.769,746.217 186.304,746.031 185.976,745.665C185.647,745.299 185.479,744.782 185.479,744.118C185.479,743.985 185.493,743.815 185.513,743.614C185.533,743.411 185.568,743.185 185.605,742.934L186.289,738.307L187.096,738.307L186.373,743.142C186.34,743.361 186.313,743.562 186.298,743.734C186.282,743.903 186.272,744.056 186.272,744.184C186.272,744.611 186.379,744.947 186.591,745.18C186.804,745.416 187.105,745.534 187.493,745.534C187.964,745.534 188.453,745.392 188.958,745.112C189.461,744.834 189.969,744.421 190.474,743.873L191.307,738.307L192.115,738.307ZM194.446,746.046L193.662,746.046L194.84,738.341L195.598,738.341L195.288,740.354C195.96,739.517 196.5,738.941 196.9,738.634C197.301,738.327 197.684,738.17 198.049,738.17C198.172,738.17 198.294,738.189 198.414,738.224C198.533,738.26 198.652,738.318 198.764,738.389L198.738,739.053C198.62,738.987 198.501,738.936 198.385,738.905C198.268,738.874 198.155,738.854 198.049,738.854C197.836,738.854 197.61,738.924 197.379,739.059C197.148,739.194 196.856,739.417 196.523,739.739C196.023,740.222 195.665,740.657 195.446,741.026C195.229,741.394 195.075,741.806 195.009,742.251L194.446,746.046ZM210.911,745.332C210.319,745.639 209.739,745.873 209.167,746.024C208.596,746.174 208.024,746.251 207.45,746.251C206.117,746.251 205.008,745.773 204.132,744.813C203.253,743.854 202.813,742.635 202.813,741.154C202.813,740.215 203.026,739.289 203.448,738.381C203.873,737.473 204.471,736.667 205.238,735.966C205.867,735.4 206.597,734.961 207.43,734.653C208.26,734.343 209.13,734.189 210.038,734.189C210.354,734.189 210.681,734.204 211.023,734.235C211.368,734.266 211.715,734.312 212.069,734.371L211.951,735.095C211.597,735.038 211.281,734.995 211.009,734.967C210.733,734.938 210.483,734.924 210.259,734.924C209.365,734.924 208.535,735.069 207.766,735.357C206.999,735.647 206.318,736.071 205.729,736.635C205.103,737.23 204.609,737.928 204.249,738.728C203.89,739.531 203.709,740.334 203.709,741.143C203.709,742.41 204.072,743.441 204.795,744.238C205.519,745.033 206.456,745.431 207.605,745.431C208.13,745.431 208.679,745.337 209.248,745.146C209.817,744.959 210.431,744.665 211.086,744.269L210.911,745.332ZM213.729,746.046L212.912,746.046L214.073,738.341L214.877,738.341L213.729,746.046ZM215.104,736.325L214.309,736.325L214.484,735.129L215.291,735.129L215.104,736.325ZM218.35,743.142C218.324,743.364 218.301,743.56 218.287,743.734C218.272,743.905 218.267,744.056 218.267,744.184C218.267,744.651 218.364,745.001 218.56,745.235C218.758,745.468 219.048,745.585 219.436,745.585C219.654,745.585 219.889,745.534 220.145,745.434C220.401,745.334 220.688,745.178 221.007,744.967L221.007,745.636C220.731,745.833 220.458,745.978 220.185,746.075C219.915,746.169 219.637,746.217 219.349,746.217C218.766,746.217 218.307,746.044 217.974,745.696C217.64,745.346 217.474,744.867 217.474,744.252C217.474,744.047 217.483,743.828 217.502,743.597C217.523,743.367 217.551,743.13 217.591,742.891L218.183,738.939L216.784,738.939L216.868,738.341L218.267,738.341L218.528,736.667L219.318,736.667L219.056,738.341L221.194,738.341L221.107,738.939L218.973,738.939L218.35,743.142ZM222.555,749.925L221.725,749.925L223.934,745.821L222.52,738.341L223.261,738.341L224.465,744.796L227.932,738.341L228.756,738.341L222.555,749.925Z" style="fill:rgb(26,26,24);fill-rule:nonzero;stroke:rgb(26,26,24);stroke-width:0.22px;"/>
            </g>
        </g>
    </g>
</svg>
